<?xml version="1.0" standalone="no"?>
<!DOCTYPE svg PUBLIC "-//W3C//DTD SVG 20010904//EN"
 "http://www.w3.org/TR/2001/REC-SVG-20010904/DTD/svg10.dtd">
<svg version="1.0" xmlns="http://www.w3.org/2000/svg"
 width="492.000000pt" height="492.000000pt" viewBox="0 0 492.000000 492.000000"
 preserveAspectRatio="xMidYMid meet">
<metadata>
Created by potrace 1.14, written by Peter Selinger 2001-2017
</metadata>
<g transform="translate(0.000000,492.000000) scale(0.100000,-0.100000)"
fill="#000000" stroke="none">
<path d="M3379 3645 c-319 -50 -575 -173 -779 -375 -98 -98 -168 -191 -221
-297 l-38 -75 35 -62 c109 -189 204 -417 204 -490 0 -25 7 -15 35 53 19 46 36
86 39 88 2 2 -5 36 -15 76 -32 125 -43 264 -29 354 7 43 13 98 11 122 -2 49
11 71 44 71 25 0 55 -29 55 -52 0 -19 -32 -48 -52 -48 -38 0 -51 -210 -22
-361 22 -117 27 -123 57 -63 40 79 114 170 187 231 71 58 172 184 234 290 31
54 35 67 30 106 -6 39 -4 46 15 57 27 14 58 5 72 -21 15 -28 2 -59 -29 -70
-19 -7 -38 -31 -63 -77 -21 -37 -61 -98 -90 -137 -52 -69 -202 -325 -194 -333
7 -8 155 28 214 52 107 43 184 106 175 142 -13 50 48 88 84 52 28 -28 2 -88
-38 -88 -10 0 -36 -16 -57 -35 -77 -71 -261 -145 -360 -145 -31 0 -36 -4 -57
-53 -58 -130 -105 -335 -120 -522 -6 -69 -6 -69 10 -40 9 17 26 41 38 54 68
75 278 203 501 305 l140 63 38 134 c46 164 101 432 121 595 19 153 31 405 22
467 l-7 47 -52 -1 c-29 -1 -91 -7 -138 -14z"/>
<path d="M1392 3385 c-143 -199 -242 -416 -298 -655 -34 -144 -43 -373 -20
-515 42 -254 159 -490 323 -652 149 -146 296 -215 488 -227 126 -9 291 -34
352 -55 l52 -18 -124 128 c-118 122 -244 292 -291 392 -18 37 -18 37 -79 37
-108 0 -220 44 -319 125 -35 28 -61 42 -71 39 -21 -9 -55 24 -55 52 0 33 42
59 69 44 22 -11 37 -52 27 -69 -7 -11 96 -90 156 -119 56 -27 152 -52 201 -52
33 0 38 3 32 18 -39 94 -85 228 -96 276 -10 45 -18 60 -33 64 -12 3 -60 25
-107 49 -96 47 -171 109 -209 171 -14 23 -35 43 -48 47 -42 10 -49 75 -10 96
45 24 88 -22 68 -72 -12 -27 -10 -33 24 -76 57 -73 159 -144 259 -179 l39 -14
-7 73 c-3 39 -11 98 -17 131 -7 38 -9 132 -5 268 6 202 6 211 -14 238 -26 34
-18 67 18 76 35 9 57 -7 61 -44 2 -22 -2 -34 -16 -41 -17 -9 -20 -28 -26 -218
-6 -179 -5 -218 10 -276 16 -67 132 -319 152 -331 32 -19 118 150 146 286 16
76 16 78 -4 98 -26 26 -25 52 0 75 16 15 26 17 48 9 34 -12 43 -64 15 -86 -12
-8 -24 -43 -36 -103 -20 -99 -59 -193 -112 -267 -19 -26 -35 -51 -35 -54 0
-22 197 -323 212 -324 13 0 79 112 103 174 13 35 29 94 36 130 10 58 9 69 -5
85 -22 24 -20 68 3 81 28 14 38 13 61 -10 26 -26 25 -46 -3 -73 -16 -16 -26
-43 -35 -94 -16 -96 -45 -171 -98 -250 -41 -61 -43 -68 -30 -88 39 -60 263
-265 289 -265 23 0 66 246 74 425 15 362 -74 694 -264 979 -153 229 -442 475
-693 589 -113 51 -99 53 -158 -28z"/>
<path d="M3369 2230 c-188 -21 -327 -82 -450 -198 -78 -73 -162 -187 -213
-289 -47 -94 -120 -363 -99 -363 14 0 261 125 321 162 l53 33 3 81 c2 71 7 91
41 160 22 45 37 91 36 107 -2 15 3 35 9 43 27 31 90 6 90 -36 0 -25 -27 -50
-54 -50 -17 0 -30 -13 -50 -50 -44 -82 -69 -239 -35 -228 36 12 279 199 348
268 47 47 116 105 153 129 41 27 69 53 72 67 12 47 81 53 92 9 13 -53 -23 -88
-67 -65 -36 20 -137 -59 -313 -244 -150 -157 -155 -164 -129 -169 45 -9 134
12 198 46 47 25 61 38 63 58 7 62 84 79 98 22 10 -37 -7 -57 -52 -63 -21 -3
-59 -17 -84 -32 -67 -39 -153 -61 -220 -55 l-56 5 -84 -75 c-47 -42 -130 -111
-185 -155 -55 -44 -104 -84 -110 -89 -12 -12 108 -3 234 18 260 42 473 163
632 360 106 132 196 325 231 493 6 33 10 62 7 65 -10 9 -201 33 -304 38 -55 3
-134 1 -176 -3z"/>
</g>
</svg>
